<?xml version="1.0" standalone="no"?>
<svg xmlns:xlink="http://www.w3.org/1999/xlink" id="wave" style="transform:rotate(0deg); transition: 0.3s" viewBox="0 0 1440 250" version="1.1" xmlns="http://www.w3.org/2000/svg"><defs><linearGradient id="sw-gradient-0" x1="0" x2="0" y1="1" y2="0"><stop stop-color="rgba(24, 195, 161, 1)" offset="0%"/><stop stop-color="rgba(159.248, 234.926, 219.879, 1)" offset="100%"/></linearGradient></defs><path style="transform:translate(0, 0px); opacity:1" fill="url(#sw-gradient-0)" d="M0,125L34.3,104.2C68.6,83,137,42,206,54.2C274.3,67,343,133,411,158.3C480,183,549,167,617,154.2C685.7,142,754,133,823,112.5C891.4,92,960,58,1029,58.3C1097.1,58,1166,92,1234,116.7C1302.9,142,1371,158,1440,154.2C1508.6,150,1577,125,1646,95.8C1714.3,67,1783,33,1851,20.8C1920,8,1989,17,2057,33.3C2125.7,50,2194,75,2263,95.8C2331.4,117,2400,133,2469,120.8C2537.1,108,2606,67,2674,70.8C2742.9,75,2811,125,2880,137.5C2948.6,150,3017,125,3086,116.7C3154.3,108,3223,117,3291,116.7C3360,117,3429,108,3497,108.3C3565.7,108,3634,117,3703,129.2C3771.4,142,3840,158,3909,162.5C3977.1,167,4046,158,4114,133.3C4182.9,108,4251,67,4320,70.8C4388.6,75,4457,125,4526,150C4594.3,175,4663,175,4731,162.5C4800,150,4869,125,4903,112.5L4937.1,100L4937.1,250L4902.9,250C4868.6,250,4800,250,4731,250C4662.9,250,4594,250,4526,250C4457.1,250,4389,250,4320,250C4251.4,250,4183,250,4114,250C4045.7,250,3977,250,3909,250C3840,250,3771,250,3703,250C3634.3,250,3566,250,3497,250C3428.6,250,3360,250,3291,250C3222.9,250,3154,250,3086,250C3017.1,250,2949,250,2880,250C2811.4,250,2743,250,2674,250C2605.7,250,2537,250,2469,250C2400,250,2331,250,2263,250C2194.3,250,2126,250,2057,250C1988.6,250,1920,250,1851,250C1782.9,250,1714,250,1646,250C1577.1,250,1509,250,1440,250C1371.4,250,1303,250,1234,250C1165.7,250,1097,250,1029,250C960,250,891,250,823,250C754.3,250,686,250,617,250C548.6,250,480,250,411,250C342.9,250,274,250,206,250C137.1,250,69,250,34,250L0,250Z"/><defs><linearGradient id="sw-gradient-1" x1="0" x2="0" y1="1" y2="0"><stop stop-color="rgba(238, 184, 104, 1)" offset="0%"/><stop stop-color="rgba(250.864, 203.456, 133.223, 1)" offset="100%"/></linearGradient></defs><path style="transform:translate(0, 50px); opacity:0.9" fill="url(#sw-gradient-1)" d="M0,0L34.3,20.8C68.6,42,137,83,206,91.7C274.3,100,343,75,411,87.5C480,100,549,150,617,175C685.7,200,754,200,823,166.7C891.4,133,960,67,1029,58.3C1097.1,50,1166,100,1234,104.2C1302.9,108,1371,67,1440,79.2C1508.6,92,1577,158,1646,175C1714.3,192,1783,158,1851,154.2C1920,150,1989,175,2057,179.2C2125.7,183,2194,167,2263,158.3C2331.4,150,2400,150,2469,158.3C2537.1,167,2606,183,2674,179.2C2742.9,175,2811,150,2880,120.8C2948.6,92,3017,58,3086,50C3154.3,42,3223,58,3291,54.2C3360,50,3429,25,3497,45.8C3565.7,67,3634,133,3703,150C3771.4,167,3840,133,3909,104.2C3977.1,75,4046,50,4114,50C4182.9,50,4251,75,4320,75C4388.6,75,4457,50,4526,33.3C4594.3,17,4663,8,4731,12.5C4800,17,4869,33,4903,41.7L4937.1,50L4937.1,250L4902.9,250C4868.6,250,4800,250,4731,250C4662.9,250,4594,250,4526,250C4457.1,250,4389,250,4320,250C4251.4,250,4183,250,4114,250C4045.7,250,3977,250,3909,250C3840,250,3771,250,3703,250C3634.3,250,3566,250,3497,250C3428.6,250,3360,250,3291,250C3222.9,250,3154,250,3086,250C3017.1,250,2949,250,2880,250C2811.4,250,2743,250,2674,250C2605.7,250,2537,250,2469,250C2400,250,2331,250,2263,250C2194.3,250,2126,250,2057,250C1988.6,250,1920,250,1851,250C1782.9,250,1714,250,1646,250C1577.1,250,1509,250,1440,250C1371.4,250,1303,250,1234,250C1165.7,250,1097,250,1029,250C960,250,891,250,823,250C754.3,250,686,250,617,250C548.6,250,480,250,411,250C342.9,250,274,250,206,250C137.1,250,69,250,34,250L0,250Z"/></svg>